<mxfile host="Electron" agent="Mozilla/5.0 (Macintosh; Intel Mac OS X 10_15_7) AppleWebKit/537.36 (KHTML, like Gecko) draw.io/24.7.5 Chrome/126.0.6478.183 Electron/31.3.0 Safari/537.36" version="24.7.5">
  <diagram name="Page-1" id="KR7NnMpATN43TUSPNZbr">
    <mxGraphModel dx="1026" dy="659" grid="1" gridSize="10" guides="1" tooltips="1" connect="1" arrows="1" fold="1" page="1" pageScale="1" pageWidth="827" pageHeight="1169" math="0" shadow="0">
      <root>
        <mxCell id="0" />
        <mxCell id="1" parent="0" />
        <mxCell id="e751G3FsjBUAYmXzeY9s-2" value="unix&lt;div style=&quot;font-size: 20px;&quot;&gt;socket&lt;/div&gt;" style="rounded=0;whiteSpace=wrap;html=1;fontSize=20;" vertex="1" parent="1">
          <mxGeometry x="75" y="280" width="70" height="80" as="geometry" />
        </mxCell>
        <mxCell id="e751G3FsjBUAYmXzeY9s-3" value="Simulation Bed" style="rounded=1;whiteSpace=wrap;html=1;fontSize=20;" vertex="1" parent="1">
          <mxGeometry x="40" y="400" width="660" height="70" as="geometry" />
        </mxCell>
        <mxCell id="e751G3FsjBUAYmXzeY9s-4" value="UAV" style="rounded=1;whiteSpace=wrap;html=1;fontSize=20;verticalAlign=top;" vertex="1" parent="1">
          <mxGeometry x="50" y="40" width="120" height="200" as="geometry" />
        </mxCell>
        <mxCell id="e751G3FsjBUAYmXzeY9s-5" value="GPS" style="rounded=0;whiteSpace=wrap;html=1;textDirection=vertical-rl;fontSize=16;" vertex="1" parent="1">
          <mxGeometry x="65" y="80" width="20" height="120" as="geometry" />
        </mxCell>
        <mxCell id="e751G3FsjBUAYmXzeY9s-6" value="Communication" style="rounded=0;whiteSpace=wrap;html=1;textDirection=vertical-rl;fontSize=16;" vertex="1" parent="1">
          <mxGeometry x="100" y="80" width="20" height="120" as="geometry" />
        </mxCell>
        <mxCell id="e751G3FsjBUAYmXzeY9s-7" value="Flight Kinetics" style="rounded=0;whiteSpace=wrap;html=1;textDirection=vertical-rl;fontSize=16;" vertex="1" parent="1">
          <mxGeometry x="135" y="80" width="20" height="120" as="geometry" />
        </mxCell>
        <mxCell id="e751G3FsjBUAYmXzeY9s-8" value="" style="ellipse;whiteSpace=wrap;html=1;aspect=fixed;" vertex="1" parent="1">
          <mxGeometry x="100" y="220" width="20" height="20" as="geometry" />
        </mxCell>
        <mxCell id="e751G3FsjBUAYmXzeY9s-10" value="" style="endArrow=none;html=1;rounded=0;entryX=0.5;entryY=1;entryDx=0;entryDy=0;exitX=0;exitY=0;exitDx=0;exitDy=0;" edge="1" parent="1" source="e751G3FsjBUAYmXzeY9s-8" target="e751G3FsjBUAYmXzeY9s-5">
          <mxGeometry width="50" height="50" relative="1" as="geometry">
            <mxPoint x="220" y="380" as="sourcePoint" />
            <mxPoint x="270" y="330" as="targetPoint" />
          </mxGeometry>
        </mxCell>
        <mxCell id="e751G3FsjBUAYmXzeY9s-11" value="" style="endArrow=none;html=1;rounded=0;entryX=0.5;entryY=1;entryDx=0;entryDy=0;exitX=1;exitY=0;exitDx=0;exitDy=0;" edge="1" parent="1" source="e751G3FsjBUAYmXzeY9s-8" target="e751G3FsjBUAYmXzeY9s-7">
          <mxGeometry width="50" height="50" relative="1" as="geometry">
            <mxPoint x="220" y="380" as="sourcePoint" />
            <mxPoint x="270" y="330" as="targetPoint" />
          </mxGeometry>
        </mxCell>
        <mxCell id="e751G3FsjBUAYmXzeY9s-12" value="" style="endArrow=none;html=1;rounded=0;entryX=0.5;entryY=1;entryDx=0;entryDy=0;exitX=0.5;exitY=0;exitDx=0;exitDy=0;" edge="1" parent="1" source="e751G3FsjBUAYmXzeY9s-8" target="e751G3FsjBUAYmXzeY9s-6">
          <mxGeometry width="50" height="50" relative="1" as="geometry">
            <mxPoint x="220" y="380" as="sourcePoint" />
            <mxPoint x="270" y="330" as="targetPoint" />
          </mxGeometry>
        </mxCell>
        <mxCell id="e751G3FsjBUAYmXzeY9s-13" value="" style="ellipse;whiteSpace=wrap;html=1;aspect=fixed;" vertex="1" parent="1">
          <mxGeometry x="100" y="400" width="20" height="20" as="geometry" />
        </mxCell>
        <mxCell id="e751G3FsjBUAYmXzeY9s-14" value="" style="endArrow=classicThin;html=1;rounded=0;entryX=0.5;entryY=1;entryDx=0;entryDy=0;startArrow=classicThin;startFill=1;endFill=1;" edge="1" parent="1" source="e751G3FsjBUAYmXzeY9s-2" target="e751G3FsjBUAYmXzeY9s-8">
          <mxGeometry width="50" height="50" relative="1" as="geometry">
            <mxPoint x="390" y="320" as="sourcePoint" />
            <mxPoint x="440" y="270" as="targetPoint" />
          </mxGeometry>
        </mxCell>
        <mxCell id="e751G3FsjBUAYmXzeY9s-15" value="" style="endArrow=classicThin;html=1;rounded=0;entryX=0.5;entryY=1;entryDx=0;entryDy=0;exitX=0.5;exitY=0;exitDx=0;exitDy=0;startArrow=classicThin;startFill=1;endFill=1;" edge="1" parent="1" source="e751G3FsjBUAYmXzeY9s-13" target="e751G3FsjBUAYmXzeY9s-2">
          <mxGeometry width="50" height="50" relative="1" as="geometry">
            <mxPoint x="390" y="320" as="sourcePoint" />
            <mxPoint x="440" y="270" as="targetPoint" />
          </mxGeometry>
        </mxCell>
        <mxCell id="e751G3FsjBUAYmXzeY9s-16" value="unix&lt;div style=&quot;font-size: 20px;&quot;&gt;socket&lt;/div&gt;" style="rounded=0;whiteSpace=wrap;html=1;fontSize=20;" vertex="1" parent="1">
          <mxGeometry x="245" y="280" width="70" height="80" as="geometry" />
        </mxCell>
        <mxCell id="e751G3FsjBUAYmXzeY9s-17" value="UAV" style="rounded=1;whiteSpace=wrap;html=1;fontSize=20;verticalAlign=top;" vertex="1" parent="1">
          <mxGeometry x="220" y="40" width="120" height="200" as="geometry" />
        </mxCell>
        <mxCell id="e751G3FsjBUAYmXzeY9s-18" value="GPS" style="rounded=0;whiteSpace=wrap;html=1;textDirection=vertical-rl;fontSize=16;" vertex="1" parent="1">
          <mxGeometry x="235" y="80" width="20" height="120" as="geometry" />
        </mxCell>
        <mxCell id="e751G3FsjBUAYmXzeY9s-19" value="Communication" style="rounded=0;whiteSpace=wrap;html=1;textDirection=vertical-rl;fontSize=16;" vertex="1" parent="1">
          <mxGeometry x="270" y="80" width="20" height="120" as="geometry" />
        </mxCell>
        <mxCell id="e751G3FsjBUAYmXzeY9s-20" value="Flight Kinetics" style="rounded=0;whiteSpace=wrap;html=1;textDirection=vertical-rl;fontSize=16;" vertex="1" parent="1">
          <mxGeometry x="305" y="80" width="20" height="120" as="geometry" />
        </mxCell>
        <mxCell id="e751G3FsjBUAYmXzeY9s-21" value="" style="ellipse;whiteSpace=wrap;html=1;aspect=fixed;" vertex="1" parent="1">
          <mxGeometry x="270" y="220" width="20" height="20" as="geometry" />
        </mxCell>
        <mxCell id="e751G3FsjBUAYmXzeY9s-22" value="" style="endArrow=none;html=1;rounded=0;entryX=0.5;entryY=1;entryDx=0;entryDy=0;exitX=0;exitY=0;exitDx=0;exitDy=0;" edge="1" parent="1" source="e751G3FsjBUAYmXzeY9s-21" target="e751G3FsjBUAYmXzeY9s-18">
          <mxGeometry width="50" height="50" relative="1" as="geometry">
            <mxPoint x="390" y="380" as="sourcePoint" />
            <mxPoint x="440" y="330" as="targetPoint" />
          </mxGeometry>
        </mxCell>
        <mxCell id="e751G3FsjBUAYmXzeY9s-23" value="" style="endArrow=none;html=1;rounded=0;entryX=0.5;entryY=1;entryDx=0;entryDy=0;exitX=1;exitY=0;exitDx=0;exitDy=0;" edge="1" parent="1" source="e751G3FsjBUAYmXzeY9s-21" target="e751G3FsjBUAYmXzeY9s-20">
          <mxGeometry width="50" height="50" relative="1" as="geometry">
            <mxPoint x="390" y="380" as="sourcePoint" />
            <mxPoint x="440" y="330" as="targetPoint" />
          </mxGeometry>
        </mxCell>
        <mxCell id="e751G3FsjBUAYmXzeY9s-24" value="" style="endArrow=none;html=1;rounded=0;entryX=0.5;entryY=1;entryDx=0;entryDy=0;exitX=0.5;exitY=0;exitDx=0;exitDy=0;" edge="1" parent="1" source="e751G3FsjBUAYmXzeY9s-21" target="e751G3FsjBUAYmXzeY9s-19">
          <mxGeometry width="50" height="50" relative="1" as="geometry">
            <mxPoint x="390" y="380" as="sourcePoint" />
            <mxPoint x="440" y="330" as="targetPoint" />
          </mxGeometry>
        </mxCell>
        <mxCell id="e751G3FsjBUAYmXzeY9s-25" value="" style="ellipse;whiteSpace=wrap;html=1;aspect=fixed;" vertex="1" parent="1">
          <mxGeometry x="270" y="400" width="20" height="20" as="geometry" />
        </mxCell>
        <mxCell id="e751G3FsjBUAYmXzeY9s-26" value="" style="endArrow=classicThin;html=1;rounded=0;entryX=0.5;entryY=1;entryDx=0;entryDy=0;startArrow=classicThin;startFill=1;endFill=1;" edge="1" parent="1" source="e751G3FsjBUAYmXzeY9s-16" target="e751G3FsjBUAYmXzeY9s-21">
          <mxGeometry width="50" height="50" relative="1" as="geometry">
            <mxPoint x="560" y="320" as="sourcePoint" />
            <mxPoint x="610" y="270" as="targetPoint" />
          </mxGeometry>
        </mxCell>
        <mxCell id="e751G3FsjBUAYmXzeY9s-27" value="" style="endArrow=classicThin;html=1;rounded=0;entryX=0.5;entryY=1;entryDx=0;entryDy=0;exitX=0.5;exitY=0;exitDx=0;exitDy=0;startArrow=classicThin;startFill=1;endFill=1;" edge="1" parent="1" source="e751G3FsjBUAYmXzeY9s-25" target="e751G3FsjBUAYmXzeY9s-16">
          <mxGeometry width="50" height="50" relative="1" as="geometry">
            <mxPoint x="560" y="320" as="sourcePoint" />
            <mxPoint x="610" y="270" as="targetPoint" />
          </mxGeometry>
        </mxCell>
        <mxCell id="e751G3FsjBUAYmXzeY9s-28" value="unix&lt;div style=&quot;font-size: 20px;&quot;&gt;socket&lt;/div&gt;" style="rounded=0;whiteSpace=wrap;html=1;fontSize=20;" vertex="1" parent="1">
          <mxGeometry x="415" y="280" width="70" height="80" as="geometry" />
        </mxCell>
        <mxCell id="e751G3FsjBUAYmXzeY9s-29" value="UAV" style="rounded=1;whiteSpace=wrap;html=1;fontSize=20;verticalAlign=top;" vertex="1" parent="1">
          <mxGeometry x="390" y="40" width="120" height="200" as="geometry" />
        </mxCell>
        <mxCell id="e751G3FsjBUAYmXzeY9s-30" value="GPS" style="rounded=0;whiteSpace=wrap;html=1;textDirection=vertical-rl;fontSize=16;" vertex="1" parent="1">
          <mxGeometry x="405" y="80" width="20" height="120" as="geometry" />
        </mxCell>
        <mxCell id="e751G3FsjBUAYmXzeY9s-31" value="Communication" style="rounded=0;whiteSpace=wrap;html=1;textDirection=vertical-rl;fontSize=16;" vertex="1" parent="1">
          <mxGeometry x="440" y="80" width="20" height="120" as="geometry" />
        </mxCell>
        <mxCell id="e751G3FsjBUAYmXzeY9s-32" value="Flight Kinetics" style="rounded=0;whiteSpace=wrap;html=1;textDirection=vertical-rl;fontSize=16;" vertex="1" parent="1">
          <mxGeometry x="475" y="80" width="20" height="120" as="geometry" />
        </mxCell>
        <mxCell id="e751G3FsjBUAYmXzeY9s-33" value="" style="ellipse;whiteSpace=wrap;html=1;aspect=fixed;" vertex="1" parent="1">
          <mxGeometry x="440" y="220" width="20" height="20" as="geometry" />
        </mxCell>
        <mxCell id="e751G3FsjBUAYmXzeY9s-34" value="" style="endArrow=none;html=1;rounded=0;entryX=0.5;entryY=1;entryDx=0;entryDy=0;exitX=0;exitY=0;exitDx=0;exitDy=0;" edge="1" parent="1" source="e751G3FsjBUAYmXzeY9s-33" target="e751G3FsjBUAYmXzeY9s-30">
          <mxGeometry width="50" height="50" relative="1" as="geometry">
            <mxPoint x="560" y="380" as="sourcePoint" />
            <mxPoint x="610" y="330" as="targetPoint" />
          </mxGeometry>
        </mxCell>
        <mxCell id="e751G3FsjBUAYmXzeY9s-35" value="" style="endArrow=none;html=1;rounded=0;entryX=0.5;entryY=1;entryDx=0;entryDy=0;exitX=1;exitY=0;exitDx=0;exitDy=0;" edge="1" parent="1" source="e751G3FsjBUAYmXzeY9s-33" target="e751G3FsjBUAYmXzeY9s-32">
          <mxGeometry width="50" height="50" relative="1" as="geometry">
            <mxPoint x="560" y="380" as="sourcePoint" />
            <mxPoint x="610" y="330" as="targetPoint" />
          </mxGeometry>
        </mxCell>
        <mxCell id="e751G3FsjBUAYmXzeY9s-36" value="" style="endArrow=none;html=1;rounded=0;entryX=0.5;entryY=1;entryDx=0;entryDy=0;exitX=0.5;exitY=0;exitDx=0;exitDy=0;" edge="1" parent="1" source="e751G3FsjBUAYmXzeY9s-33" target="e751G3FsjBUAYmXzeY9s-31">
          <mxGeometry width="50" height="50" relative="1" as="geometry">
            <mxPoint x="560" y="380" as="sourcePoint" />
            <mxPoint x="610" y="330" as="targetPoint" />
          </mxGeometry>
        </mxCell>
        <mxCell id="e751G3FsjBUAYmXzeY9s-37" value="" style="ellipse;whiteSpace=wrap;html=1;aspect=fixed;" vertex="1" parent="1">
          <mxGeometry x="440" y="400" width="20" height="20" as="geometry" />
        </mxCell>
        <mxCell id="e751G3FsjBUAYmXzeY9s-38" value="" style="endArrow=classicThin;html=1;rounded=0;entryX=0.5;entryY=1;entryDx=0;entryDy=0;startArrow=classicThin;startFill=1;endFill=1;" edge="1" parent="1" source="e751G3FsjBUAYmXzeY9s-28" target="e751G3FsjBUAYmXzeY9s-33">
          <mxGeometry width="50" height="50" relative="1" as="geometry">
            <mxPoint x="730" y="320" as="sourcePoint" />
            <mxPoint x="780" y="270" as="targetPoint" />
          </mxGeometry>
        </mxCell>
        <mxCell id="e751G3FsjBUAYmXzeY9s-39" value="" style="endArrow=classicThin;html=1;rounded=0;entryX=0.5;entryY=1;entryDx=0;entryDy=0;exitX=0.5;exitY=0;exitDx=0;exitDy=0;startArrow=classicThin;startFill=1;endFill=1;" edge="1" parent="1" source="e751G3FsjBUAYmXzeY9s-37" target="e751G3FsjBUAYmXzeY9s-28">
          <mxGeometry width="50" height="50" relative="1" as="geometry">
            <mxPoint x="730" y="320" as="sourcePoint" />
            <mxPoint x="780" y="270" as="targetPoint" />
          </mxGeometry>
        </mxCell>
        <mxCell id="e751G3FsjBUAYmXzeY9s-40" value="unix&lt;div style=&quot;font-size: 20px;&quot;&gt;socket&lt;/div&gt;" style="rounded=0;whiteSpace=wrap;html=1;fontSize=20;" vertex="1" parent="1">
          <mxGeometry x="595" y="280" width="70" height="80" as="geometry" />
        </mxCell>
        <mxCell id="e751G3FsjBUAYmXzeY9s-41" value="UAV" style="rounded=1;whiteSpace=wrap;html=1;fontSize=20;verticalAlign=top;" vertex="1" parent="1">
          <mxGeometry x="570" y="40" width="120" height="200" as="geometry" />
        </mxCell>
        <mxCell id="e751G3FsjBUAYmXzeY9s-42" value="GPS" style="rounded=0;whiteSpace=wrap;html=1;textDirection=vertical-rl;fontSize=16;" vertex="1" parent="1">
          <mxGeometry x="585" y="80" width="20" height="120" as="geometry" />
        </mxCell>
        <mxCell id="e751G3FsjBUAYmXzeY9s-43" value="Communication" style="rounded=0;whiteSpace=wrap;html=1;textDirection=vertical-rl;fontSize=16;" vertex="1" parent="1">
          <mxGeometry x="620" y="80" width="20" height="120" as="geometry" />
        </mxCell>
        <mxCell id="e751G3FsjBUAYmXzeY9s-44" value="Flight Kinetics" style="rounded=0;whiteSpace=wrap;html=1;textDirection=vertical-rl;fontSize=16;" vertex="1" parent="1">
          <mxGeometry x="655" y="80" width="20" height="120" as="geometry" />
        </mxCell>
        <mxCell id="e751G3FsjBUAYmXzeY9s-45" value="" style="ellipse;whiteSpace=wrap;html=1;aspect=fixed;" vertex="1" parent="1">
          <mxGeometry x="620" y="220" width="20" height="20" as="geometry" />
        </mxCell>
        <mxCell id="e751G3FsjBUAYmXzeY9s-46" value="" style="endArrow=none;html=1;rounded=0;entryX=0.5;entryY=1;entryDx=0;entryDy=0;exitX=0;exitY=0;exitDx=0;exitDy=0;" edge="1" parent="1" source="e751G3FsjBUAYmXzeY9s-45" target="e751G3FsjBUAYmXzeY9s-42">
          <mxGeometry width="50" height="50" relative="1" as="geometry">
            <mxPoint x="740" y="380" as="sourcePoint" />
            <mxPoint x="790" y="330" as="targetPoint" />
          </mxGeometry>
        </mxCell>
        <mxCell id="e751G3FsjBUAYmXzeY9s-47" value="" style="endArrow=none;html=1;rounded=0;entryX=0.5;entryY=1;entryDx=0;entryDy=0;exitX=1;exitY=0;exitDx=0;exitDy=0;" edge="1" parent="1" source="e751G3FsjBUAYmXzeY9s-45" target="e751G3FsjBUAYmXzeY9s-44">
          <mxGeometry width="50" height="50" relative="1" as="geometry">
            <mxPoint x="740" y="380" as="sourcePoint" />
            <mxPoint x="790" y="330" as="targetPoint" />
          </mxGeometry>
        </mxCell>
        <mxCell id="e751G3FsjBUAYmXzeY9s-48" value="" style="endArrow=none;html=1;rounded=0;entryX=0.5;entryY=1;entryDx=0;entryDy=0;exitX=0.5;exitY=0;exitDx=0;exitDy=0;" edge="1" parent="1" source="e751G3FsjBUAYmXzeY9s-45" target="e751G3FsjBUAYmXzeY9s-43">
          <mxGeometry width="50" height="50" relative="1" as="geometry">
            <mxPoint x="740" y="380" as="sourcePoint" />
            <mxPoint x="790" y="330" as="targetPoint" />
          </mxGeometry>
        </mxCell>
        <mxCell id="e751G3FsjBUAYmXzeY9s-49" value="" style="ellipse;whiteSpace=wrap;html=1;aspect=fixed;" vertex="1" parent="1">
          <mxGeometry x="620" y="400" width="20" height="20" as="geometry" />
        </mxCell>
        <mxCell id="e751G3FsjBUAYmXzeY9s-50" value="" style="endArrow=classicThin;html=1;rounded=0;entryX=0.5;entryY=1;entryDx=0;entryDy=0;startArrow=classicThin;startFill=1;endFill=1;" edge="1" parent="1" source="e751G3FsjBUAYmXzeY9s-40" target="e751G3FsjBUAYmXzeY9s-45">
          <mxGeometry width="50" height="50" relative="1" as="geometry">
            <mxPoint x="910" y="320" as="sourcePoint" />
            <mxPoint x="960" y="270" as="targetPoint" />
          </mxGeometry>
        </mxCell>
        <mxCell id="e751G3FsjBUAYmXzeY9s-51" value="" style="endArrow=classicThin;html=1;rounded=0;entryX=0.5;entryY=1;entryDx=0;entryDy=0;exitX=0.5;exitY=0;exitDx=0;exitDy=0;startArrow=classicThin;startFill=1;endFill=1;" edge="1" parent="1" source="e751G3FsjBUAYmXzeY9s-49" target="e751G3FsjBUAYmXzeY9s-40">
          <mxGeometry width="50" height="50" relative="1" as="geometry">
            <mxPoint x="910" y="320" as="sourcePoint" />
            <mxPoint x="960" y="270" as="targetPoint" />
          </mxGeometry>
        </mxCell>
        <mxCell id="e751G3FsjBUAYmXzeY9s-53" value="" style="html=1;shadow=0;dashed=0;align=center;verticalAlign=middle;shape=mxgraph.arrows2.arrow;dy=0.6;dx=40;direction=south;notch=0;" vertex="1" parent="1">
          <mxGeometry x="335" y="470" width="70" height="60" as="geometry" />
        </mxCell>
        <mxCell id="e751G3FsjBUAYmXzeY9s-54" value="Output" style="ellipse;whiteSpace=wrap;html=1;fontSize=20;" vertex="1" parent="1">
          <mxGeometry x="310" y="530" width="120" height="60" as="geometry" />
        </mxCell>
      </root>
    </mxGraphModel>
  </diagram>
</mxfile>
